Coordinates
version=1
nRows=5
nColumns=40
inDegrees=yes

Units are S.I. units (second, meters, Newtons, ...)
If the header above contains a line with 'inDegrees', this indicates whether rotational values are in degrees (yes) or radians (no).

endheader
time	pelvis_tilt	pelvis_list	pelvis_rotation	pelvis_tx	pelvis_ty	pelvis_tz	hip_flexion_r	hip_adduction_r	hip_rotation_r	knee_angle_r	knee_angle_r_beta	ankle_angle_r	subtalar_angle_r	mtp_angle_r	hip_flexion_l	hip_adduction_l	hip_rotation_l	knee_angle_l	knee_angle_l_beta	ankle_angle_l	subtalar_angle_l	mtp_angle_l	lumbar_extension	lumbar_bending	lumbar_rotation	arm_flex_r	arm_add_r	arm_rot_r	elbow_flex_r	pro_sup_r	wrist_flex_r	wrist_dev_r	arm_flex_l	arm_add_l	arm_rot_l	elbow_flex_l	pro_sup_l	wrist_flex_l	wrist_dev_l
      8.95500000000000007105	     31.38808219906807295274	     -0.01711942661381786121	   -176.01962395519936421806	      0.39253983618320309468	      0.81663796770323882068	     -0.55953297583393613035	     83.74208085240825027995	    -15.83747632793016002495	     -2.07615104607333389453	     61.55493285255970192793	      1.07433624912119207728	      9.73641125142294328043	      0.00000000000000000000	      0.00000000000000000000	     82.58081590211634193111	     -3.05155240089078860777	     -0.62436621516729318149	     62.21068624554024495410	      1.08578130490982682765	      9.36155822891607947156	      0.00000000000000000000	      0.00000000000000000000	    -43.79815273625725779993	      5.37617743240253265213	     -0.23930163429628559246	     59.72417465006214598588	    -16.10791697020109936034	     31.70728249917231522659	     19.63092645070458885925	     89.05759527757558657868	      0.00000000000000000000	      0.00000000000000000000	     63.46474954343222663056	    -11.40700264761414750581	     56.26061940546411221931	     20.59956735816606254730	     86.06635569968341314961	      0.00000000000000000000	      0.00000000000000000000
      8.96000000000000085265	     31.37197470089239104141	      0.04012132695208232847	   -176.03684679737213514272	      0.39243265241862673731	      0.81765697467272779875	     -0.55967736889954633472	     83.54705540182958145579	    -15.74999636264631064364	     -2.12544678556153776583	     61.31206579979315307583	      1.07009741940580105357	      9.69887058522393097348	      0.00000000000000000000	      0.00000000000000000000	     82.43465107555142878937	     -3.03709399671358415418	     -0.48754609869876641692	     61.99629647313374647410	      1.08203949749873218344	      9.31239088583819452083	      0.00000000000000000000	      0.00000000000000000000	    -43.64929257450278043962	      5.39186815380642947559	     -0.17835763190487194385	     59.56511994561691381023	    -16.12136530114135624103	     31.66666551472926727229	     19.61425135814600295703	     89.05786089138956640454	      0.00000000000000000000	      0.00000000000000000000	     63.35813692749227499235	    -11.35059852845998307203	     56.26976310661362390420	     20.52350371183570842959	     86.03107878063542557356	      0.00000000000000000000	      0.00000000000000000000
      8.96499999999999985789	     31.34736643038458581145	      0.06057020758015869977	   -176.03715162364588309174	      0.39234227389088421889	      0.81871649857863393329	     -0.55972880246903500279	     83.37466043327182774192	    -15.70572197955057092145	     -2.16381175654534851915	     61.11072237850731170283	      1.06658331377713300192	      9.60685242553372198415	      0.00000000000000000000	      0.00000000000000000000	     82.27211139623669566845	     -3.05565344000416283521	     -0.50534035492173323689	     61.78136014536404019282	      1.07828815089700502661	      9.21242313420081160302	      0.00000000000000000000	      0.00000000000000000000	    -43.51107106804134616596	      5.40956492817590550715	     -0.17746967440074370992	     59.43469288452520515875	    -16.13757347974266664892	     31.84480982463883336209	     19.62921052398480625811	     89.05738068890534009370	      0.00000000000000000000	      0.00000000000000000000	     63.22110344653341940102	    -11.35713813642943570414	     56.23496722682447312991	     20.52251717395056829218	     85.99415734054186088997	      0.00000000000000000000	      0.00000000000000000000
      8.97000000000000063949	     31.34951609455589505160	      0.07611066245235276195	   -176.07353107757026577929	      0.39223094021655574570	      0.81966442694939634084	     -0.55983077704588368739	     83.23349895685973365289	    -15.65020633409178074658	     -2.21030385204936985488	     60.90818249188568245245	      1.06304832588896958079	      9.48996189073935703107	      0.00000000000000000000	      0.00000000000000000000	     82.13063992363835552624	     -3.07437038533362017034	     -0.46709375634357980234	     61.57083503978521576983	      1.07461379464654593896	      9.16154377674194364545	      0.00000000000000000000	      0.00000000000000000000	    -43.32584532029562751632	      5.39093053658488141622	     -0.12045287968227981479	     59.27574400990214087415	    -16.17029028601390905351	     31.94526437257888673571	     19.60262185401631285231	     89.05129722668951330888	      0.00000000000000000000	      0.00000000000000000000	     63.02076164363776200616	    -11.27293551190321352351	     56.02744924688420269376	     20.46517289650536142176	     86.01489342805314208817	      0.00000000000000000000	      0.00000000000000000000
      8.97499999999999964473	     31.31652991989564682740	      0.17563509018110903814	   -176.05939669031266703314	      0.39207522367772817962	      0.82072768027776887845	     -0.55979324564554244770	     82.99201893374113581103	    -15.62459261949272004699	     -2.36372112207865159306	     60.64932118918338943558	      1.05853034385081290480	      9.46123936290540967775	      0.00000000000000000000	      0.00000000000000000000	     81.96923739545061948775	     -3.06613800100481448396	     -0.35754081934277981425	     61.36011023116859064430	      1.07093595292055088208	      9.17329778150893382360	      0.00000000000000000000	      0.00000000000000000000	    -43.17974578600516366578	      5.49319222557429576170	     -0.06761205495112712627	     59.10807357853555288330	    -16.32330417542727118985	     32.46434145030693230183	     19.78804915767308969521	     89.04842045703183828209	      0.00000000000000000000	      0.00000000000000000000	     62.83334662380564594741	    -11.03700734377597747482	     55.58102916300175877495	     20.13078785490849043072	     85.87466464979981140004	      0.00000000000000000000	      0.00000000000000000000
